<svg width="40" height="40" fill="none" xmlns="http://www.w3.org/2000/svg"><path d="M31.183 32.5c-1.383 2.067-2.85 4.084-5.083 4.117-2.233.05-2.95-1.316-5.483-1.316-2.55 0-3.334 1.283-5.45 1.366-2.184.084-3.834-2.2-5.234-4.216-2.85-4.117-5.033-11.7-2.1-16.8 1.45-2.534 4.05-4.134 6.867-4.184 2.133-.033 4.167 1.45 5.483 1.45 1.3 0 3.767-1.783 6.35-1.516 1.084.05 4.117.433 6.067 3.3-.15.1-3.617 2.133-3.583 6.35.05 5.033 4.416 6.716 4.466 6.733-.05.117-.7 2.4-2.3 4.717ZM21.667 5.835c1.216-1.383 3.233-2.433 4.9-2.5.216 1.95-.567 3.917-1.734 5.317-1.15 1.416-3.05 2.516-4.916 2.366-.25-1.916.683-3.916 1.75-5.183Z" fill="#fff"/></svg>