<svg width="40" height="40" fill="none" xmlns="http://www.w3.org/2000/svg"><g clip-path="url(#a)"><path d="M3.75 0A3.75 3.75 0 0 0 0 3.75v17.5A3.75 3.75 0 0 0 3.75 25H15v2.5H2.5A2.5 2.5 0 0 0 0 30v7.5A2.5 2.5 0 0 0 2.5 40h35a2.5 2.5 0 0 0 2.5-2.5V30a2.5 2.5 0 0 0-2.5-2.5H25V25h11.25A3.75 3.75 0 0 0 40 21.25V3.75A3.75 3.75 0 0 0 36.25 0H3.75Zm0 2.5h32.5a1.25 1.25 0 0 1 1.25 1.25v17.5a1.25 1.25 0 0 1-1.25 1.25H3.75a1.25 1.25 0 0 1-1.25-1.25V3.75A1.25 1.25 0 0 1 3.75 2.5ZM30 31.25a1.25 1.25 0 1 1 2.5 0 1.25 1.25 0 0 1-2.5 0Zm5 0a1.25 1.25 0 1 1 2.5 0 1.25 1.25 0 0 1-2.5 0ZM3.75 30h12.5a1.25 1.25 0 0 1 0 2.5H3.75a1.25 1.25 0 0 1 0-2.5ZM2.5 35.625A.625.625 0 0 1 3.125 35h13.75a.624.624 0 1 1 0 1.25H3.125a.625.625 0 0 1-.625-.625Z" fill="#fff"/></g><defs><clipPath id="a"><path fill="#fff" d="M0 0h40v40H0z"/></clipPath></defs></svg>