<svg width="54" height="55" fill="none" xmlns="http://www.w3.org/2000/svg"><g clip-path="url(#a)"><path d="M47.98 20.375v22.5m-35.334-22.5v22.5m-6.625-22.5v22.5m35.333-22.5v22.5m-36.437 4.5h44.166M.5 53h53M27 24.875h-2.208c-.586 0-1.148.237-1.562.659a2.272 2.272 0 0 0-.647 1.591v.844c0 .487.155.96.442 1.35.287.39.69.673 1.148.81l5.654 1.68c.458.137.861.421 1.148.81.287.39.442.864.442 1.35v2.156c0 .597-.233 1.169-.647 1.591a2.188 2.188 0 0 1-1.562.659H27m0-13.5h2.208c.586 0 1.148.237 1.562.659.414.422.647.994.647 1.591v1.125M27 24.875v-4.5m0 18h-2.208a2.188 2.188 0 0 1-1.562-.659 2.272 2.272 0 0 1-.647-1.591V35M27 38.375v4.5m25.396-28.688v1.688H1.604v-1.688C12.646 10.25 19.271 6.875 26.448 1.25h1.104c7.177 5.625 13.802 9 24.844 12.938Z" stroke="#fff" stroke-width="3"/></g><defs><clipPath id="a"><path fill="#fff" transform="translate(.5 .125)" d="M0 0h53v54H0z"/></clipPath></defs></svg>