<svg width="55" height="55" fill="none" xmlns="http://www.w3.org/2000/svg"><path d="M33.9 23.677c-.84 3.358-6.067 1.652-7.692 1.192l1.49-5.905c1.68.488 7.069 1.192 6.202 4.713Zm-8.423 4.225-1.625 6.527c2.004.514 8.206 2.492 9.127-1.192.975-3.846-5.498-4.848-7.502-5.335Zm28.627 6.229C50.475 48.648 35.796 57.477 21.28 53.848 6.762 50.218-2.059 35.539 1.563 21.023A27.073 27.073 0 0 1 34.388 1.306c14.49 3.63 23.318 18.308 19.716 32.825ZM33.82 16.879l1.218-4.875-2.979-.677-1.191 4.685a59.86 59.86 0 0 0-2.384-.541l1.192-4.794-2.952-.704-1.219 4.848c-.65-.163-1.3-.298-1.896-.46l-4.09-1.03-.812 3.169s2.221.514 2.167.541c1.219.298 1.435 1.057 1.381 1.734l-3.331 13.352c-.135.379-.569.866-1.354.731.027.027-2.167-.542-2.167-.542l-1.462 3.386 3.845.975c.732.19 1.436.379 2.14.541l-1.246 4.93 2.98.758 1.218-4.902c.813.217 1.598.406 2.356.623l-1.218 4.848 2.979.758 1.246-4.93c5.01.949 8.856.57 10.427-4.007 1.354-3.657 0-5.823-2.709-7.205 1.95-.514 3.413-1.733 3.82-4.387.54-3.602-2.222-5.525-5.96-6.825Z" fill="#fff"/></svg>