<svg width="71" height="70" fill="none" xmlns="http://www.w3.org/2000/svg"><g clip-path="url(#a)"><path d="M57.381 31.999s.923 4.521 1.131 5.468h-4.058L56.4 32.18c-.024.037.4-1.107.643-1.811l.34 1.63Zm12.87-18.389v42.78a5.836 5.836 0 0 1-5.835 5.833H6.082A5.836 5.836 0 0 1 .248 56.39V13.61a5.836 5.836 0 0 1 5.834-5.834h58.334a5.836 5.836 0 0 1 5.834 5.834ZM18.782 44.14l7.68-18.861h-5.165L16.523 38.16 16 35.549l-1.702-8.678c-.28-1.203-1.142-1.544-2.211-1.592H4.225l-.085.376c1.8.441 3.527 1.142 5.127 2.078l4.351 16.406h5.165Zm11.473.023L33.32 25.28h-4.885l-3.05 18.884h4.872Zm17.001-6.173c.025-2.15-1.288-3.79-4.095-5.14-1.712-.865-2.758-1.446-2.758-2.335.024-.802.888-1.63 2.806-1.63a8.37 8.37 0 0 1 3.634.718l.438.206.669-4.084a12.146 12.146 0 0 0-4.375-.803c-4.826 0-8.216 2.577-8.24 6.245-.038 2.71 2.43 4.218 4.278 5.128 1.884.923 2.529 1.531 2.529 2.345-.024 1.264-1.531 1.846-2.929 1.846-1.945 0-2.99-.304-4.583-1.008l-.643-.304-.68 4.241c1.142.523 3.257.985 5.444 1.009 5.128.01 8.47-2.53 8.508-6.44l-.003.006Zm17.16 6.173L60.478 25.28h-3.78c-1.166 0-2.054.34-2.553 1.568L46.89 44.165h5.127s.838-2.334 1.022-2.83h6.271c.147.67.585 2.83.585 2.83l4.521-.002Z" fill="#fff"/></g><defs><clipPath id="a"><path fill="#fff" transform="translate(.25)" d="M0 0h70v70H0z"/></clipPath></defs></svg>