<svg width="53" height="55" viewBox="0 0 53 55" fill="none" xmlns="http://www.w3.org/2000/svg">
<path d="M47.4792 20.75V43.25M12.1458 20.75V43.25M5.52083 20.75V43.25M40.8542 20.75V43.25M4.41667 47.75H48.5833M0 53.375H53M26.5 25.25H24.2917C23.706 25.25 23.1443 25.4871 22.7301 25.909C22.316 26.331 22.0833 26.9033 22.0833 27.5V28.3438C22.0833 28.8306 22.2383 29.3043 22.525 29.6938C22.8117 30.0832 23.2146 30.3674 23.6733 30.5038L29.3267 32.1845C29.7854 32.3208 30.1883 32.605 30.475 32.9945C30.7617 33.384 30.9167 33.8577 30.9167 34.3445V36.5C30.9167 37.0967 30.684 37.669 30.2699 38.091C29.8557 38.5129 29.294 38.75 28.7083 38.75H26.5M26.5 25.25H28.7083C29.294 25.25 29.8557 25.4871 30.2699 25.909C30.684 26.331 30.9167 26.9033 30.9167 27.5V28.625M26.5 25.25V20.75M26.5 38.75H24.2917C23.706 38.75 23.1443 38.5129 22.7301 38.091C22.316 37.669 22.0833 37.0967 22.0833 36.5V35.375M26.5 38.75V43.25M51.8958 14.5625V16.25H1.10417V14.5625C12.1458 10.625 18.7708 7.25 25.9479 1.625H27.0521C34.2292 7.25 40.8542 10.625 51.8958 14.5625Z" stroke="white"/>
</svg>
