<svg width="55" height="55" viewBox="0 0 55 55" fill="none" xmlns="http://www.w3.org/2000/svg">
<path d="M33.15 23.6768C32.3104 27.0352 27.0833 25.3289 25.4583 24.8685L26.9479 18.9643C28.6271 19.4518 34.0167 20.156 33.15 23.6768ZM24.7271 27.9018L23.1021 34.4289C25.1063 34.9435 31.3083 36.9206 32.2292 33.2373C33.2042 29.3914 26.7313 28.3893 24.7271 27.9018ZM53.3542 34.131C49.725 48.6477 35.0458 57.4768 20.5292 53.8477C6.0125 50.2185 -2.80854 35.5393 0.812504 21.0227C1.67279 17.5725 3.20432 14.3256 5.31963 11.4674C7.43494 8.6092 10.0926 6.19571 13.1408 4.36478C16.189 2.53385 19.568 1.32135 23.0849 0.796515C26.6017 0.271683 30.1876 0.444808 33.6375 1.306C48.1271 4.93517 56.9563 19.6143 53.3542 34.131ZM33.0688 16.8789L34.2875 12.0039L31.3083 11.3268L30.1167 16.0122C29.3313 15.8227 28.5458 15.6331 27.7333 15.4706L28.925 10.6768L25.9729 9.97267L24.7542 14.8206C24.1042 14.6581 23.4542 14.5227 22.8583 14.3602L18.7688 13.331L17.9563 16.4997C17.9563 16.4997 20.1771 17.0143 20.1229 17.0414C21.3417 17.3393 21.5583 18.0977 21.5042 18.7747L18.1729 32.1268C18.0375 32.506 17.6042 32.9935 16.8188 32.8581C16.8458 32.8852 14.6521 32.3164 14.6521 32.3164L13.1896 35.7018L17.0354 36.6768C17.7667 36.8664 18.4708 37.056 19.175 37.2185L17.9292 42.1477L20.9083 42.906L22.1271 38.0039C22.9396 38.2206 23.725 38.4102 24.4833 38.6268L23.2646 43.4748L26.2438 44.2331L27.4896 39.3039C32.5 40.2518 36.3458 39.8727 37.9167 35.2956C39.2708 31.6393 37.9167 29.4727 35.2083 28.0914C37.1583 27.5768 38.6208 26.3581 39.0271 23.7039C39.5688 20.1018 36.8063 18.1789 33.0688 16.8789Z" fill="white"/>
</svg>
