<svg width="70" height="54" viewBox="0 0 70 54" fill="none" xmlns="http://www.w3.org/2000/svg">
<path d="M57.1312 24.0234C57.1312 24.0234 58.0543 28.5078 58.2621 29.4473H54.2043L56.149 24.2035C56.1249 24.2403 56.5493 23.1057 56.7921 22.4071L57.1312 24.0234ZM70.0002 5.78618V48.2138C69.9997 49.7482 69.3848 51.2196 68.2908 52.3046C67.1969 53.3896 65.7133 53.9994 64.1662 54H5.83211C4.285 53.9994 2.80142 53.3896 1.70744 52.3046C0.613471 51.2196 -0.00137336 49.7482 -0.00195312 48.2138V5.78618C-0.00137336 4.25177 0.613471 2.78036 1.70744 1.69537C2.80142 0.610373 4.285 0.00057501 5.83211 0H64.1662C65.7133 0.00057501 67.1969 0.610373 68.2908 1.69537C69.3848 2.78036 69.9997 4.25177 70.0002 5.78618ZM18.5327 36.0644L26.213 17.3585H21.0484L16.273 30.135L15.7502 27.5446L14.0484 18.938C13.7684 17.7447 12.9065 17.4063 11.8368 17.3585H3.97492L3.88961 17.7317C5.69008 18.1698 7.41715 18.864 9.01711 19.7928L13.368 36.0644H18.5327ZM30.0062 36.0882L33.0687 17.3585H28.184L25.1346 36.0882H30.0062ZM47.0074 29.9658C47.0315 27.8331 45.719 26.2059 42.9124 24.8673C41.1996 24.0104 40.154 23.4333 40.154 22.5524C40.178 21.7562 41.0421 20.9361 42.9605 20.9361C44.2101 20.9012 45.4516 21.1443 46.594 21.6477L47.0315 21.8517L47.7009 17.8011C46.3044 17.2709 44.8212 17.001 43.3259 17.0049C38.5002 17.0049 35.1096 19.5606 35.0855 23.199C35.0484 25.887 37.5159 27.3818 39.3643 28.2844C41.2477 29.1999 41.893 29.8031 41.893 30.6101C41.869 31.8641 40.3618 32.4412 38.964 32.4412C37.0193 32.4412 35.9737 32.1397 34.3812 31.4411L33.738 31.1395L33.0577 35.3462C34.1996 35.8648 36.3149 36.3225 38.5024 36.3464C43.6299 36.3573 46.9724 33.8384 47.0096 29.9593L47.0074 29.9658ZM64.1662 36.0882L60.2287 17.3585H56.4487C55.2827 17.3585 54.3946 17.697 53.8959 18.9141L46.6399 36.0904H51.7674C51.7674 36.0904 52.6052 33.7755 52.789 33.283H59.0605C59.2071 33.9469 59.6446 36.0904 59.6446 36.0904L64.1662 36.0882Z" fill="white"/>
</svg>
