<svg width="40" height="40" viewBox="0 0 40 40" fill="none" xmlns="http://www.w3.org/2000/svg">
<path d="M6.39999 16.4665V26.4665M33.0667 16.4665V26.4665M11.4 14.7998H28.0667M11.4 14.7998V28.1331C11.4 28.5752 11.5756 28.9991 11.8881 29.3117C12.2007 29.6242 12.6246 29.7998 13.0667 29.7998H26.4C26.842 29.7998 27.2659 29.6242 27.5785 29.3117C27.8911 28.9991 28.0667 28.5752 28.0667 28.1331V14.7998M11.4 14.7998C11.4 12.5897 12.278 10.4701 13.8408 8.90725C15.4036 7.34444 17.5232 6.46647 19.7333 6.46647C21.9435 6.46647 24.0631 7.34444 25.6259 8.90725C27.1887 10.4701 28.0667 12.5897 28.0667 14.7998M13.0667 4.7998L14.7333 8.13314M26.4 4.7998L24.7333 8.13314M14.7333 29.7998V34.7998M24.7333 29.7998V34.7998" stroke="white" stroke-width="2" stroke-linecap="round" stroke-linejoin="round"/>
</svg>
