<svg width="54" height="55" viewBox="0 0 54 55" fill="none" xmlns="http://www.w3.org/2000/svg">
<g clip-path="url(#clip0_4_1001)">
<path d="M47.9792 20.375V42.875M12.6458 20.375V42.875M6.02083 20.375V42.875M41.3542 20.375V42.875M4.91667 47.375H49.0833M0.5 53H53.5M27 24.875H24.7917C24.206 24.875 23.6443 25.1121 23.2301 25.534C22.816 25.956 22.5833 26.5283 22.5833 27.125V27.9688C22.5833 28.4556 22.7383 28.9293 23.025 29.3188C23.3117 29.7082 23.7146 29.9924 24.1733 30.1288L29.8267 31.8095C30.2854 31.9458 30.6883 32.23 30.975 32.6195C31.2617 33.009 31.4167 33.4827 31.4167 33.9695V36.125C31.4167 36.7217 31.184 37.294 30.7699 37.716C30.3557 38.1379 29.794 38.375 29.2083 38.375H27M27 24.875H29.2083C29.794 24.875 30.3557 25.1121 30.7699 25.534C31.184 25.956 31.4167 26.5283 31.4167 27.125V28.25M27 24.875V20.375M27 38.375H24.7917C24.206 38.375 23.6443 38.1379 23.2301 37.716C22.816 37.294 22.5833 36.7217 22.5833 36.125V35M27 38.375V42.875M52.3958 14.1875V15.875H1.60417V14.1875C12.6458 10.25 19.2708 6.875 26.4479 1.25H27.5521C34.7292 6.875 41.3542 10.25 52.3958 14.1875Z" stroke="white" stroke-width="3"/>
</g>
<defs>
<clipPath id="clip0_4_1001">
<rect width="53" height="54" fill="white" transform="translate(0.5 0.125)"/>
</clipPath>
</defs>
</svg>
