<svg width="55" height="55" viewBox="0 0 55 55" fill="none" xmlns="http://www.w3.org/2000/svg">
<path d="M33.9 23.6768C33.0604 27.0352 27.8333 25.3289 26.2083 24.8685L27.6979 18.9643C29.3771 19.4518 34.7667 20.156 33.9 23.6768ZM25.4771 27.9018L23.8521 34.4289C25.8563 34.9435 32.0583 36.9206 32.9792 33.2373C33.9542 29.3914 27.4813 28.3893 25.4771 27.9018ZM54.1042 34.131C50.475 48.6477 35.7958 57.4768 21.2792 53.8477C6.7625 50.2185 -2.05854 35.5393 1.5625 21.0227C2.42279 17.5725 3.95432 14.3256 6.06963 11.4674C8.18494 8.6092 10.8426 6.19571 13.8908 4.36478C16.939 2.53385 20.318 1.32135 23.8349 0.796515C27.3517 0.271683 30.9376 0.444808 34.3875 1.306C48.8771 4.93517 57.7063 19.6143 54.1042 34.131ZM33.8188 16.8789L35.0375 12.0039L32.0583 11.3268L30.8667 16.0122C30.0813 15.8227 29.2958 15.6331 28.4833 15.4706L29.675 10.6768L26.7229 9.97267L25.5042 14.8206C24.8542 14.6581 24.2042 14.5227 23.6083 14.3602L19.5188 13.331L18.7063 16.4997C18.7063 16.4997 20.9271 17.0143 20.8729 17.0414C22.0917 17.3393 22.3083 18.0977 22.2542 18.7747L18.9229 32.1268C18.7875 32.506 18.3542 32.9935 17.5688 32.8581C17.5958 32.8852 15.4021 32.3164 15.4021 32.3164L13.9396 35.7018L17.7854 36.6768C18.5167 36.8664 19.2208 37.056 19.925 37.2185L18.6792 42.1477L21.6583 42.906L22.8771 38.0039C23.6896 38.2206 24.475 38.4102 25.2333 38.6268L24.0146 43.4748L26.9938 44.2331L28.2396 39.3039C33.25 40.2518 37.0958 39.8727 38.6667 35.2956C40.0208 31.6393 38.6667 29.4727 35.9583 28.0914C37.9083 27.5768 39.3708 26.3581 39.7771 23.7039C40.3188 20.1018 37.5563 18.1789 33.8188 16.8789Z" fill="white"/>
</svg>
