<svg width="40" height="40" viewBox="0 0 40 40" fill="none" xmlns="http://www.w3.org/2000/svg">
<path d="M31.1833 32.5007C29.8 34.5673 28.3333 36.584 26.1 36.6173C23.8667 36.6673 23.15 35.3007 20.6167 35.3007C18.0667 35.3007 17.2833 36.584 15.1667 36.6673C12.9833 36.7506 11.3333 34.4673 9.93332 32.4506C7.08332 28.334 4.89999 20.7507 7.83332 15.6507C9.28332 13.1173 11.8833 11.5173 14.7 11.4673C16.8333 11.434 18.8667 12.9173 20.1833 12.9173C21.4833 12.9173 23.95 11.134 26.5333 11.4007C27.6167 11.4507 30.65 11.834 32.6 14.7007C32.45 14.8007 28.9833 16.834 29.0167 21.0507C29.0667 26.084 33.4333 27.7673 33.4833 27.784C33.4333 27.9007 32.7833 30.184 31.1833 32.5007ZM21.6667 5.83398C22.8833 4.45065 24.9 3.40065 26.5667 3.33398C26.7833 5.28398 26 7.25065 24.8333 8.65065C23.6833 10.0673 21.7833 11.1673 19.9167 11.0173C19.6667 9.10065 20.6 7.10065 21.6667 5.83398Z" fill="white"/>
</svg>
