<svg width="56" height="55" viewBox="0 0 56 55" fill="none" xmlns="http://www.w3.org/2000/svg">
<path d="M23.6663 45.5H32.833V43.25H23.6663V45.5ZM16.7913 52.25C15.5309 52.25 14.4516 51.809 13.5532 50.927C12.6549 50.045 12.2065 48.986 12.208 47.75V7.25C12.208 6.0125 12.6572 4.95275 13.5555 4.07075C14.4538 3.18875 15.5325 2.7485 16.7913 2.75H39.708C40.9684 2.75 42.0478 3.191 42.9461 4.073C43.8445 4.955 44.2929 6.014 44.2913 7.25V47.75C44.2913 48.9875 43.8422 50.0473 42.9438 50.9293C42.0455 51.8113 40.9669 52.2515 39.708 52.25H16.7913ZM16.7913 36.5H39.708V14H16.7913V36.5Z" fill="white"/>
</svg>
