<svg width="71" height="70" viewBox="0 0 71 70" fill="none" xmlns="http://www.w3.org/2000/svg">
<g clip-path="url(#clip0_4_997)">
<path d="M57.3812 31.9986C57.3812 31.9986 58.3043 36.5201 58.5121 37.4673H54.4543L56.399 32.1801C56.3749 32.2173 56.7993 31.0732 57.0421 30.3689L57.3812 31.9986ZM70.2502 13.6104V56.3892C70.2497 57.9363 69.6348 59.4199 68.5408 60.5138C67.4469 61.6078 65.9633 62.2227 64.4162 62.2232H6.08211C4.535 62.2227 3.05142 61.6078 1.95744 60.5138C0.863471 59.4199 0.248627 57.9363 0.248047 56.3892V13.6104C0.248627 12.0633 0.863471 10.5797 1.95744 9.48577C3.05142 8.39179 4.535 7.77695 6.08211 7.77637H64.4162C65.9633 7.77695 67.4469 8.39179 68.5408 9.48577C69.6348 10.5797 70.2497 12.0633 70.2502 13.6104ZM18.7827 44.1392L26.463 25.2786H21.2984L16.523 38.1607L16.0002 35.5489L14.2984 26.8711C14.0184 25.6679 13.1565 25.3267 12.0868 25.2786H4.22492L4.13961 25.6548C5.94008 26.0965 7.66715 26.7965 9.26711 27.7329L13.618 44.1392H18.7827ZM30.2562 44.1632L33.3187 25.2786H28.434L25.3846 44.1632H30.2562ZM47.2574 37.9901C47.2815 35.8398 45.969 34.1992 43.1624 32.8495C41.4496 31.9854 40.404 31.4036 40.404 30.5154C40.428 29.7126 41.2921 28.8857 43.2105 28.8857C44.4601 28.8505 45.7016 29.0957 46.844 29.6032L47.2815 29.8089L47.9509 25.7248C46.5544 25.1902 45.0712 24.918 43.5759 24.922C38.7502 24.922 35.3596 27.4989 35.3355 31.1673C35.2984 33.8776 37.7659 35.3848 39.6143 36.2948C41.4977 37.2179 42.143 37.8261 42.143 38.6398C42.119 39.9042 40.6118 40.4861 39.214 40.4861C37.2693 40.4861 36.2237 40.182 34.6312 39.4776L33.988 39.1736L33.3077 43.4151C34.4496 43.9379 36.5649 44.3995 38.7524 44.4236C43.8799 44.4345 47.2224 41.8948 47.2596 37.9836L47.2574 37.9901ZM64.4162 44.1632L60.4787 25.2786H56.6987C55.5327 25.2786 54.6446 25.6198 54.1459 26.847L46.8899 44.1654H52.0174C52.0174 44.1654 52.8552 41.8314 53.039 41.3348H59.3105C59.4571 42.0042 59.8946 44.1654 59.8946 44.1654L64.4162 44.1632Z" fill="white"/>
</g>
<defs>
<clipPath id="clip0_4_997">
<rect width="70" height="70" fill="white" transform="translate(0.25)"/>
</clipPath>
</defs>
</svg>
